<?xml version="1.0" encoding="UTF-8"?><svg xmlns="http://www.w3.org/2000/svg" viewBox="0 0 926.32 158.85"><defs><style>.b{fill:#05c900;}.w{fill:#ffffff;}</style></defs><path class="w" d="M0,155.8V2.62h96.66v30.55h-60.66v30.11h47.57v30.55h-47.57v61.97H0Z"/><path class="w" d="M99.08,106.05c0-31.2,24.22-52.37,54.99-52.37s54.77,21.17,54.77,52.37-24.22,52.8-55.2,52.8-54.55-21.6-54.55-52.8ZM174.15,106.05c0-17.46-10.69-25.53-20.51-25.53s-20.07,8.07-20.07,25.53,10.26,25.75,20.07,25.75,20.51-8.29,20.51-25.75Z"/><path class="w" d="M257.71,155.8h-34.04V2.62l30.98-2.62h3.05v155.8Z"/><path class="w" d="M295.88.87c11.78,0,21.6,9.82,21.6,21.6s-9.82,21.17-21.6,21.17-21.38-9.16-21.38-21.17S284.53.87,295.88.87ZM279.08,56.73h34.04v99.06h-34.04V56.73Z"/><path class="w" d="M326.84,106.05c0-31.2,24.22-52.37,54.99-52.37s54.77,21.17,54.77,52.37-24.22,52.8-55.21,52.8-54.55-21.6-54.55-52.8ZM401.9,106.05c0-17.46-10.69-25.53-20.51-25.53s-20.07,8.07-20.07,25.53,10.26,25.75,20.07,25.75,20.51-8.29,20.51-25.75Z"/><path class="w" d="M556.1,125.25v30.55h-100.59V2.62h98.84v30.55h-62.84v30.11h51.93v30.55h-51.93v31.42h64.59Z"/><polygon class="b" points="643.41 97.62 674.8 56.73 636.4 56.73 624.02 72.62 643.41 97.62"/><polygon class="w" points="597.89 56.73 558.94 56.73 597.34 106.7 558.94 155.8 598.65 155.8 616.98 132.01 635.31 155.8 674.72 155.8 597.89 56.73"/><path class="w" d="M754.01,121.54l17.24,20.29c-12.22,12.87-27.71,17.02-43.2,17.02-34.26,0-54.11-26.84-54.11-52.15,0-29.24,22.26-53.02,53.9-53.02,17.46,0,32.51,5.46,44.29,19.42l-19.64,20.07c-3.27-4.36-11.57-11.35-20.51-11.35-10.91,0-23.57,8.29-23.57,24.44s12.44,24.44,24,24.44c7.86,0,15.93-3.71,21.6-9.16Z"/><path class="w" d="M862.87,124.81l11.78,23.35c-11.13,8.29-29.24,10.69-41.89,10.69-35.79,0-57.82-24.22-57.82-52.37,0-33.6,24.88-52.8,51.71-52.8s53.9,20.73,50.4,61.1h-67.64c1.31,8.29,11.56,17.02,27.71,17.02,10.04,0,20.73-3.93,25.75-6.98ZM810.93,95.14h32.08c-.87-10.04-9.17-14.62-16.15-14.62-7.64,0-15.27,6.55-15.93,14.62Z"/><path class="w" d="M926.32,155.8h-34.04V2.62l30.99-2.62h3.05v155.8Z"/></svg>
